<svg xmlns="http://www.w3.org/2000/svg" version="1.1" xmlns:xlink="http://www.w3.org/1999/xlink" xmlns:svgjs="http://svgjs.dev/svgjs" viewBox="0 0 800 800"><defs><linearGradient x1="50%" y1="0%" x2="50%" y2="100%" id="ccchaos-grad"><stop stop-color="hsl(230, 55%, 50%)" stop-opacity="1" offset="0%"></stop><stop stop-color="hsl(230, 55%, 70%)" stop-opacity="1" offset="100%"></stop></linearGradient></defs><g stroke-width="2" stroke="url(#ccchaos-grad)" fill="none" stroke-linecap="round"><path d="M382.28 115.41C391.74 118.68 401.22 122.16 410.72 125.7 420.24 128.72 429.81 131.58 439.41 134.22 449.06 136.16 458.78 137.88 468.57 139.41 478.45 140.34 488.44 141.25 498.53 142.24 508.74 142.94 519.08 143.95 529.53 145.37 540.1 146.84 550.77 148.93 561.49 151.68 572.28 154.75 583.05 158.61 593.71 163.23 604.3 168.29 614.65 174.13 624.63 180.69 634.31 187.67 643.43 195.3 651.83 203.5 659.66 212.02 666.57 221 672.4 230.35 677.44 239.91 681.27 249.74 683.79 259.78 685.46 269.92 685.83 280.19 684.91 290.54 683.35 300.93 680.71 311.36 677.14 321.78 673.39 332.22 669.12 342.65 664.54 353.04 660.45 363.43 656.52 373.77 653 384.05 650.58 394.33 648.91 404.53 648.12 414.62 648.75 424.71 650.26 434.43 652.55 443.75 655.95 453.05 659.77 461.93 663.79 470.34 668.32 478.69 672.58 486.55 676.32 493.88 679.92 501.13 682.61 507.82 684.25 513.94 685.12 522.73 679.18 537.65 672.39 544.02 666.68 548.33 659.88 552.42 652.14 556.41 643.83 560.86 634.79 565.44 625.17 570.3 615.24 575.91 604.93 582.01 594.37 588.72 583.72 596.35 572.96 604.68 562.17 613.68 551.44 623.51 540.76 633.85 530.17 644.53 519.69 655.52 509.33 666.41 499.08 676.85 488.96 686.79 478.95 695.67 469.04 703.12 459.22 709.25 449.47 713.45 439.8 715.52 430.18 715.85 420.6 713.98 411.06 709.99 401.55 704.65 392.05 697.71 382.59 689.53 373.13 681.15 363.91 672.64 354.95 664.46 345.99 657.34 337.28 651.2 328.84 646.24 320.39 642.95 312.22 640.93 304.35 640.09 296.46 640.74 288.86 642.17 281.57 644.11 274.26 646.81 267.25 649.42 260.54 651.66 253.78 653.82 247.3 655.11 241.1 655.35 234.81 654.93 228.77 653.22 222.98 650.2 217.04 646.32 211.3 641.15 205.75 634.81 200.02 627.7 194.45 619.59 189.04 610.66 183.41 601.22 177.92 591.17 172.59 580.7 167.04 569.97 161.66 558.99 156.48 547.89 151.13 536.73 146.02 525.56 141.18 514.46 136.27 503.39 131.7 492.43 127.52 481.63 123.38 470.89 119.71 460.31 116.56 449.89 113.55 439.53 111.14 429.31 109.38 419.26 107.84 409.24 106.99 399.35 106.87 389.63 107.02 379.92 107.89 370.57 109.46 361.62 111.25 352.65 113.68 344.05 116.7 335.84 119.86 327.62 123.54 319.77 127.69 312.31 131.86 304.81 136.43 297.68 141.33 290.91 146.15 284.06 151.24 277.54 156.57 271.31 161.72 264.94 167.07 258.79 172.59 252.84 177.88 246.64 183.34 240.54 188.94 234.49 194.32 228.1 199.86 221.67 205.56 215.18 211.08 208.27 216.79 201.26 222.71 194.14 228.49 186.63 234.52 179.06 240.8 171.49 246.98 163.69 253.45 156.02 260.21 148.6 266.92 141.24 273.93 134.34 281.25 128.06 288.54 122.17 296.14 117.11 304.03 113.02 311.91 109.56 320.09 107.19 328.53 105.95 336.97 105.38 345.69 105.88 354.65 107.41 363.61 109.35 372.82 112.06 382.27 115.4" stroke-dasharray="4 2" transform="rotate(0, 400, 400)" opacity="0.58"></path><path d="M385.66 126.45C394.83 129.68 404.06 133.14 413.34 136.66 422.63 139.69 432 142.6 441.43 145.3 450.9 147.35 460.47 149.18 470.11 150.83 479.83 151.89 489.66 152.9 499.58 153.95 509.59 154.67 519.71 155.64 529.89 156.93 540.16 158.22 550.47 160.03 560.77 162.42 571.07 165.05 581.29 168.39 591.34 172.43 601.25 176.84 610.85 181.99 620.02 187.83 628.86 194.06 637.1 200.93 644.59 208.37 651.54 216.14 657.56 224.4 662.55 233.06 666.82 241.94 669.95 251.15 671.87 260.59 673.05 270.17 673.06 279.93 671.92 289.79 670.25 299.72 667.64 309.72 664.23 319.73 660.72 329.77 656.76 339.81 652.56 349.8 648.84 359.81 645.29 369.76 642.1 379.62 639.93 389.49 638.44 399.25 637.72 408.87 638.28 418.49 639.63 427.72 641.67 436.54 644.74 445.33 648.2 453.69 651.84 461.59 655.99 469.45 659.92 476.83 663.42 483.7 666.86 490.53 669.51 496.85 671.24 502.66 672.49 511.12 668.13 525.97 662.45 532.66 657.58 537.28 651.65 541.81 644.81 546.35 637.4 551.37 629.25 556.6 620.47 562.16 611.36 568.42 601.8 575.18 591.93 582.5 581.92 590.62 571.71 599.33 561.42 608.58 551.12 618.48 540.81 628.72 530.54 639.14 520.34 649.7 510.21 660 500.18 669.74 490.24 678.9 480.39 686.97 470.64 693.62 460.97 698.99 451.39 702.55 441.89 704.1 432.45 704.09 423.06 702.06 413.75 698.08 404.46 692.91 395.22 686.27 386.04 678.49 376.87 670.52 367.96 662.4 359.33 654.54 350.68 647.6 342.31 641.5 334.21 636.44 326.1 632.87 318.27 630.45 310.73 629.11 303.16 629.17 295.88 630 288.89 631.37 281.86 633.54 275.1 635.75 268.63 637.74 262.1 639.8 255.81 641.19 249.79 641.72 243.66 641.77 237.75 640.71 232.05 638.5 226.21 635.56 220.54 631.44 215.06 626.21 209.38 620.27 203.84 613.34 198.46 605.56 192.87 597.26 187.41 588.3 182.11 578.82 176.6 569.04 171.27 558.91 166.12 548.57 160.83 538.1 155.77 527.54 151 516.96 146.16 506.36 141.65 495.82 137.54 485.38 133.47 474.97 129.86 464.67 126.77 454.54 123.83 444.43 121.46 434.48 119.73 424.69 118.23 414.92 117.39 405.31 117.28 395.88 117.42 386.44 118.29 377.4 119.82 368.73 121.58 360.06 123.96 351.76 126.92 343.83 130.03 335.87 133.65 328.28 137.72 321.04 141.83 313.74 146.33 306.78 151.16 300.13 155.92 293.38 160.96 286.9 166.23 280.66 171.35 274.25 176.66 268.02 182.13 261.91 187.4 255.56 192.83 249.26 198.39 242.98 203.74 236.36 209.24 229.69 214.89 222.96 220.35 215.85 225.98 208.66 231.81 201.4 237.48 193.82 243.37 186.22 249.48 178.67 255.49 170.98 261.76 163.48 268.29 156.29 274.76 149.21 281.5 142.65 288.53 136.72 295.52 131.21 302.8 126.53 310.37 122.79 317.91 119.67 325.74 117.59 333.85 116.59 341.94 116.21 350.32 116.85 358.96 118.45 367.58 120.43 376.49 123.13 385.65 126.44" stroke-dasharray="2 8" transform="rotate(4.04, 400, 400)" opacity="0.94"></path><path d="M389.71 137.49C398.59 140.69 407.57 144.1 416.61 147.59 425.67 150.64 434.81 153.57 444.03 156.34 453.29 158.48 462.65 160.43 472.09 162.19 481.59 163.39 491.18 164.52 500.84 165.65 510.57 166.42 520.37 167.38 530.2 168.61 540.06 169.76 549.92 171.35 559.7 173.44 569.45 175.7 579.04 178.58 588.4 182.09 597.58 185.91 606.4 190.42 614.75 195.57 622.74 201.07 630.11 207.19 636.72 213.88 642.81 220.88 648.01 228.38 652.22 236.3 655.79 244.47 658.29 252.98 659.69 261.76 660.47 270.7 660.18 279.85 658.89 289.14 657.16 298.52 654.62 308 651.39 317.51 648.13 327.07 644.49 336.65 640.65 346.18 637.3 355.74 634.1 365.24 631.23 374.65 629.3 384.07 627.96 393.37 627.31 402.52 627.82 411.67 629.02 420.43 630.82 428.77 633.58 437.11 636.68 445.02 639.96 452.49 643.74 459.93 647.35 466.92 650.6 473.46 653.84 479.98 656.41 486.06 658.18 491.72 659.72 500.05 656.7 515.21 652.04 522.37 647.93 527.38 642.83 532.39 636.83 537.5 630.31 543.08 623.02 548.93 615.1 555.12 606.82 561.96 598.06 569.26 588.92 577.05 579.6 585.52 570.03 594.46 560.31 603.81 550.54 613.64 540.69 623.66 530.83 633.7 521 643.73 511.19 653.39 501.45 662.4 491.78 670.77 482.17 678.02 472.66 683.9 463.2 688.56 453.83 691.51 444.55 692.6 435.31 692.28 426.15 690.11 417.08 686.17 408.03 681.18 399.04 674.84 390.14 667.45 381.24 659.89 372.63 652.15 364.29 644.61 355.95 637.87 347.88 631.85 340.09 626.71 332.28 622.92 324.74 620.15 317.49 618.35 310.2 617.86 303.18 618.11 296.44 618.92 289.65 620.55 283.12 622.31 276.84 623.97 270.48 625.84 264.36 627.21 258.47 627.89 252.46 628.26 246.65 627.7 241.04 626.14 235.27 624 229.66 620.78 224.21 616.54 218.57 611.68 213.07 605.86 207.71 599.2 202.16 592.02 196.73 584.15 191.46 575.71 186 566.94 180.71 557.75 175.62 548.26 170.4 538.6 165.41 528.75 160.7 518.82 155.94 508.82 151.52 498.81 147.48 488.84 143.5 478.87 139.97 468.97 136.95 459.2 134.08 449.44 131.77 439.81 130.08 430.33 128.61 420.87 127.8 411.55 127.69 402.4 127.83 393.26 128.67 384.49 130.17 376.09 131.89 367.67 134.22 359.61 137.11 351.9 140.15 344.16 143.69 336.74 147.68 329.65 151.71 322.49 156.13 315.61 160.88 309 165.58 302.28 170.55 295.77 175.75 289.46 180.82 282.96 186.08 276.59 191.51 270.31 196.75 263.78 202.15 257.27 207.67 250.75 213 243.93 218.47 237.05 224.07 230.12 229.49 222.87 235.07 215.56 240.81 208.21 246.4 200.62 252.19 193.07 258.18 185.62 264.05 178.11 270.16 170.83 276.5 163.92 282.76 157.18 289.29 150.97 296.07 145.42 302.8 140.3 309.81 136.01 317.1 132.63 324.35 129.84 331.88 128.05 339.68 127.28 347.47 127.09 355.53 127.85 363.87 129.52 372.2 131.52 380.81 134.21 389.7 137.48" stroke-dasharray="3 10" transform="rotate(8.08, 400, 400)" opacity="0.09"></path><path d="M394.23 148.53C402.84 151.68 411.55 155.05 420.33 158.5 429.13 161.54 438.03 164.51 447 167.32 456 169.56 465.1 171.61 474.26 173.5 483.47 174.84 492.76 176.09 502.09 177.32 511.45 178.18 520.85 179.17 530.23 180.37 539.62 181.43 548.94 182.86 558.14 184.72 567.26 186.67 576.18 189.16 584.8 192.22 593.22 195.51 601.24 199.42 608.75 203.93 615.9 208.75 622.42 214.15 628.2 220.1 633.49 226.34 637.92 233.08 641.43 240.26 644.37 247.66 646.33 255.44 647.29 263.51 647.72 271.76 647.22 280.24 645.82 288.89 644.09 297.65 641.65 306.54 638.62 315.48 635.62 324.5 632.3 333.54 628.83 342.56 625.82 351.61 622.96 360.62 620.39 369.55 618.68 378.48 617.49 387.31 616.9 395.99 617.36 404.67 618.42 412.99 620 420.91 622.46 428.83 625.23 436.35 628.16 443.47 631.58 450.57 634.86 457.28 637.84 463.59 640.88 469.91 643.33 475.87 645.1 481.48 646.83 489.84 644.94 505.6 641.16 513.32 637.75 518.75 633.41 524.25 628.21 529.91 622.52 536.02 616.08 542.41 609 549.15 601.56 556.45 593.6 564.16 585.23 572.28 576.66 580.95 567.78 589.98 558.68 599.28 549.51 608.9 540.2 618.58 530.83 628.14 521.45 637.58 512.06 646.55 502.69 654.79 493.35 662.37 484.06 668.83 474.84 673.96 465.66 677.95 456.56 680.34 447.54 681.02 438.56 680.42 429.65 678.14 420.84 674.26 412.04 669.45 403.32 663.42 394.7 656.4 386.08 649.25 377.74 641.89 369.69 634.67 361.62 628.15 353.83 622.23 346.31 617.06 338.77 613.09 331.5 610.01 324.49 607.81 317.45 606.81 310.66 606.51 304.13 606.77 297.53 607.85 291.18 609.13 285.06 610.42 278.85 612.01 272.86 613.25 267.07 613.96 258.29 614.4 241.38 610.5 233.18 605.89 227.58 601.98 222.11 597.17 216.77 591.55 211.26 585.45 205.87 578.65 200.63 571.24 195.23 563.5 190 555.28 184.97 546.7 179.83 537.92 174.92 528.88 170.29 519.68 165.63 510.38 161.3 501 157.36 491.6 153.48 482.17 150.04 472.76 147.09 463.43 144.3 454.09 142.06 444.85 140.41 435.72 138.99 426.61 138.21 417.61 138.09 408.76 138.24 399.92 139.06 391.41 140.51 383.25 142.18 375.07 144.44 367.22 147.26 359.68 150.22 352.11 153.67 344.82 157.56 337.81 161.51 330.73 165.84 323.89 170.49 317.26 175.11 310.52 180 303.94 185.12 297.51 190.14 290.9 195.34 284.37 200.71 277.9 205.92 271.2 211.28 264.49 216.76 257.78 222.07 250.79 227.51 243.75 233.07 236.67 238.46 229.34 243.99 221.97 249.67 214.62 255.21 207.1 260.91 199.66 266.8 192.38 272.56 185.1 278.54 178.11 284.73 171.52 290.83 165.15 297.17 159.33 303.75 154.18 310.27 149.47 317.05 145.57 324.09 142.55 331.08 140.09 338.35 138.58 345.88 138.03 353.39 138.01 361.17 138.89 369.23 140.61 377.28 142.63 385.61 145.31 394.22 148.53" stroke-dasharray="5 10" transform="rotate(12.12, 400, 400)" opacity="0.95"></path><path d="M399.02 159.57C407.35 162.67 415.78 165.98 424.28 169.39 432.8 172.42 441.41 175.4 450.09 178.25 458.8 180.57 467.58 182.73 476.41 184.73 485.27 186.21 494.18 187.6 503.1 188.94 512.04 189.9 520.96 190.96 529.83 192.16 538.67 193.19 547.4 194.52 555.95 196.21 564.4 197.91 572.6 200.09 580.47 202.76 588.11 205.59 595.33 208.98 602.01 212.92 608.36 217.1 614.07 221.84 619.07 227.09 623.61 232.6 627.35 238.6 630.23 245.03 632.61 251.67 634.1 258.7 634.7 266.05 634.86 273.56 634.2 281.34 632.75 289.31 631.06 297.4 628.75 305.64 625.94 313.98 623.2 322.38 620.21 330.85 617.08 339.32 614.4 347.82 611.86 356.31 609.58 364.73 608.08 373.16 607.03 381.52 606.49 389.74 606.9 397.97 607.83 405.86 609.21 413.41 611.4 420.95 613.84 428.14 616.44 434.98 619.51 441.82 622.47 448.33 625.18 454.51 627.99 460.72 630.3 466.63 632.02 472.29 633.87 480.8 632.89 497.33 629.88 505.63 627.09 511.47 623.44 517.44 618.98 523.58 614.07 530.15 608.43 537 602.16 544.15 595.54 551.79 588.39 559.77 580.8 568.07 572.99 576.79 564.83 585.76 556.42 594.87 547.89 604.17 539.19 613.41 530.37 622.41 521.52 631.2 512.6 639.43 503.67 646.9 494.75 653.69 485.84 659.39 476.98 663.8 468.14 667.16 459.35 669.04 450.64 669.35 441.95 668.52 433.33 666.16 424.8 662.36 416.29 657.73 407.85 652 399.5 645.36 391.16 638.6 383.09 631.62 375.31 624.73 367.51 618.44 359.97 612.64 352.7 607.48 345.41 603.36 338.36 600.03 331.57 597.48 324.74 596.02 318.15 595.21 311.79 594.94 305.37 595.48 299.16 596.27 293.17 597.15 284.14 598.9 266.83 600.64 258.48 599.92 252.82 598.89 247.29 597.04 241.9 594.38 236.35 591.28 230.91 587.36 225.6 582.67 220.14 577.57 214.8 571.77 209.61 565.36 204.28 558.62 199.12 551.38 194.16 543.72 189.11 535.85 184.3 527.67 179.77 519.26 175.22 510.74 171.01 502.06 167.16 493.29 163.39 484.48 160.06 475.64 157.2 466.8 154.5 457.96 152.33 449.16 150.74 440.43 149.37 431.71 148.61 423.06 148.5 414.53 148.65 405.99 149.44 397.76 150.84 389.82 152.46 381.87 154.65 374.2 157.37 366.8 160.25 359.36 163.6 352.17 167.38 345.21 171.22 338.17 175.44 331.33 179.98 324.66 184.51 317.87 189.31 311.2 194.34 304.64 199.28 297.92 204.42 291.24 209.72 284.6 214.88 277.75 220.19 270.89 225.63 264.02 230.91 256.92 236.31 249.78 241.84 242.63 247.2 235.29 252.69 227.95 258.32 220.67 263.8 213.29 269.45 206.03 275.25 198.99 280.93 192.01 286.8 185.36 292.86 179.13 298.83 173.16 305.02 167.76 311.43 163.03 317.77 158.74 324.35 155.22 331.17 152.56 337.95 150.42 344.98 149.18 352.26 148.84 359.52 148.98 367.05 149.96 374.84 151.72 382.62 153.76 390.67 156.4 399.01 159.57" stroke-dasharray="8 4" transform="rotate(16.16, 400, 400)" opacity="0.45"></path><path d="M403.85 170.61C411.9 173.65 420.03 176.9 428.23 180.25 436.44 183.26 444.73 186.24 453.07 189.12 461.43 191.51 469.85 193.77 478.29 195.88 486.75 197.5 495.23 199.02 503.68 200.49 512.12 201.58 520.52 202.72 528.81 203.97 537.05 205.02 545.14 206.3 553.02 207.86 560.77 209.4 568.23 211.32 575.33 213.68 582.21 216.13 588.64 219.08 594.53 222.51 600.11 226.13 605.06 230.26 609.33 234.88 613.2 239.7 616.32 244.99 618.64 250.71 620.55 256.61 621.65 262.91 621.96 269.53 621.91 276.3 621.14 283.36 619.69 290.64 618.07 298.03 615.93 305.6 613.35 313.3 610.88 321.07 608.2 328.92 605.41 336.82 603.05 344.75 600.81 352.69 598.79 360.6 597.49 368.53 596.57 376.4 596.08 384.18 596.45 391.97 597.25 399.47 598.45 406.68 600.37 413.89 602.52 420.8 604.8 427.43 607.53 434.07 610.17 440.44 612.61 446.55 615.18 452.71 617.32 458.65 618.96 464.41 620.85 473.15 620.58 490.48 618.23 499.34 615.98 505.56 612.94 511.92 609.15 518.47 604.96 525.4 600.08 532.58 594.57 540.02 588.75 547.86 582.38 555.96 575.56 564.29 568.51 572.93 561.1 581.69 553.39 590.5 545.55 599.37 537.49 608.07 529.27 616.44 521 624.53 512.62 632.02 504.19 638.71 495.75 644.73 487.28 649.69 478.82 653.44 470.38 656.22 461.96 657.63 453.6 657.6 445.25 656.57 436.95 654.16 428.73 650.45 420.53 646.02 412.38 640.58 404.33 634.32 396.27 627.94 388.48 621.34 380.95 614.78 373.41 608.73 366.12 603.08 359.08 597.95 352.01 593.75 345.18 590.21 338.58 587.36 331.94 585.49 325.52 584.21 319.31 583.45 313.04 583.46 306.96 583.76 301.07 584.19 292.19 585.41 275.09 586.8 266.81 586.32 261.2 585.62 255.72 584.23 250.36 582.13 244.85 579.7 239.46 576.53 234.19 572.66 228.78 568.44 223.51 563.55 218.38 558.06 213.14 552.27 208.07 545.97 203.2 539.22 198.26 532.26 193.56 524.95 189.14 517.35 184.73 509.63 180.63 501.7 176.9 493.62 173.26 485.48 170.04 477.24 167.28 468.97 164.68 460.67 162.59 452.35 161.06 444.06 159.74 435.77 159.02 427.5 158.91 419.3 159.05 411.09 159.81 403.13 161.16 395.42 162.72 387.7 164.83 380.2 167.45 372.93 170.23 365.62 173.47 358.51 177.13 351.58 180.86 344.58 184.96 337.72 189.37 331 193.79 324.17 198.48 317.42 203.4 310.75 208.25 303.93 213.31 297.14 218.52 290.37 223.63 283.42 228.88 276.46 234.26 269.49 239.49 262.35 244.86 255.19 250.33 248.05 255.66 240.78 261.12 233.55 266.69 226.42 272.14 219.25 277.72 212.25 283.45 205.51 289.06 198.88 294.85 192.61 300.8 186.79 306.66 181.25 312.72 176.29 318.97 171.98 325.16 168.11 331.57 164.98 338.2 162.66 344.78 160.84 351.6 159.85 358.65 159.71 365.68 160 372.96 161.06 380.49 162.86 388.01 164.9 395.79 167.51 403.84 170.61" stroke-dasharray="8 1" transform="rotate(20.200000000000003, 400, 400)" opacity="0.93"></path><path d="M408.5 181.65C416.25 184.62 424.07 187.8 431.94 191.08 439.82 194.07 447.75 197.04 455.72 199.94 463.7 202.39 471.7 204.73 479.71 206.94 487.71 208.69 495.7 210.35 503.64 211.95 511.54 213.18 519.36 214.43 527.04 215.75 534.66 216.84 542.08 218.12 549.26 219.62 556.3 221.05 563.02 222.8 569.37 224.91 578.33 228.35 593.3 237.59 599.05 243.43 603.6 249.96 608.63 265.34 609.11 274.05 608.92 280.11 608.09 286.46 606.68 293.06 605.16 299.75 603.2 306.65 600.86 313.7 598.67 320.82 596.29 328.06 593.82 335.38 591.76 342.72 589.81 350.12 588.04 357.52 586.91 364.94 586.11 372.34 585.67 379.71 586 387.07 586.69 394.21 587.71 401.12 589.39 408.02 591.26 414.71 593.25 421.16 595.65 427.64 597.99 433.92 600.15 440.01 602.47 446.16 604.43 452.16 605.95 458.05 607.38 464.05 608.24 470 608.47 475.92 608.44 482.04 607.7 488.2 606.26 494.45 604.48 500.97 601.97 507.64 598.78 514.49 595.24 521.65 591.04 529.03 586.26 536.62 581.17 544.51 575.56 552.59 569.49 560.81 563.2 569.22 556.52 577.66 549.52 586.04 542.39 594.39 535 602.49 527.42 610.18 519.76 617.55 511.96 624.27 504.07 630.2 496.16 635.48 488.18 639.74 480.18 642.86 472.18 645.11 464.18 646.1 456.2 645.78 448.23 644.59 440.29 642.15 432.41 638.55 424.54 634.32 416.71 629.18 408.95 623.28 401.2 617.28 393.68 611.05 386.41 604.82 379.13 599.03 372.07 593.54 365.25 588.49 358.4 584.23 351.76 580.54 345.34 577.43 338.88 575.21 332.61 573.52 326.54 572.3 320.4 571.82 314.44 571.62 308.65 571.6 299.91 572.23 283 573.03 274.8 572.62 266.53 571.56 250.38 566.14 242.5 561.66 237.18 558.19 231.98 554.09 226.93 549.43 221.8 544.51 216.84 539.07 212.08 533.18 207.27 527.1 202.7 520.63 198.41 513.84 194.14 506.92 190.18 499.74 186.59 492.37 183.08 484.93 179.98 477.33 177.33 469.64 174.84 461.92 172.84 454.12 171.37 446.3 170.12 438.46 169.42 430.61 169.32 422.75 169.46 414.9 170.18 407.23 171.47 399.75 172.97 392.26 174.99 384.95 177.51 377.81 180.18 370.63 183.3 363.6 186.82 356.71 190.42 349.75 194.38 342.9 198.66 336.14 202.95 329.29 207.51 322.5 212.3 315.75 217.05 308.88 222 302.02 227.11 295.19 232.14 288.2 237.31 281.22 242.61 274.24 247.79 267.13 253.1 260.04 258.52 253 263.8 245.87 269.21 238.83 274.73 231.93 280.13 225.05 285.66 218.38 291.31 212 296.86 205.76 302.57 199.91 308.42 194.53 314.19 189.45 320.13 184.93 326.24 181.06 332.3 177.6 338.55 174.85 345 172.87 351.4 171.35 358.02 170.6 364.86 170.64 371.67 171.06 378.71 172.21 385.98 174.03 393.24 176.06 400.75 178.62 408.49 181.65" stroke-dasharray="9 10" transform="rotate(24.24, 400, 400)" opacity="0.37"></path><path d="M412.76 192.69C420.2 195.59 427.68 198.68 435.19 201.9 442.71 204.84 450.26 207.79 457.81 210.69 465.37 213.19 472.93 215.6 480.46 217.9 487.97 219.78 495.44 221.57 502.81 223.3 510.15 224.67 517.37 226.05 524.41 227.47 531.38 228.64 538.13 229.95 544.6 231.45 553.94 233.64 570.46 239.47 577.4 243.29 583.41 247.6 592.04 258.43 594.55 264.91 595.99 271.96 595.48 287.92 593.73 296.7 592.34 302.72 590.57 308.96 588.48 315.39 586.55 321.87 584.47 328.5 582.31 335.24 580.53 342.02 578.84 348.87 577.31 355.78 576.34 362.7 575.65 369.65 575.26 376.61 575.55 383.57 576.14 390.38 577 397.01 578.45 403.64 580.06 410.12 581.77 416.43 583.86 422.77 585.9 428.98 587.79 435.07 589.86 441.22 591.62 447.29 593.01 453.3 594.36 459.42 595.21 465.54 595.52 471.68 595.64 478 595.15 484.39 594.03 490.88 592.62 497.6 590.58 504.46 587.91 511.48 584.94 518.75 581.37 526.19 577.24 533.78 572.84 541.58 567.94 549.5 562.58 557.47 557.01 565.53 551.06 573.55 544.76 581.41 538.33 589.16 531.62 596.6 524.68 603.59 517.67 610.21 510.48 616.18 503.16 621.37 495.8 625.93 488.35 629.54 480.85 632.08 473.33 633.84 465.78 634.46 458.23 633.9 450.67 632.57 443.13 630.13 435.61 626.64 428.09 622.63 420.6 617.78 413.16 612.24 405.72 606.61 398.49 600.75 391.49 594.85 384.46 589.32 377.65 584.03 371.04 579.07 364.41 574.8 357.96 571 351.71 567.7 345.42 565.17 339.3 563.12 333.36 561.49 324.43 560.21 307.2 559.43 298.87 559.36 290.52 559.44 274.24 558.02 266.3 556.16 260.93 554.61 255.67 552.51 250.54 549.85 245.31 546.98 240.22 543.56 235.28 539.6 230.27 535.44 225.43 530.77 220.8 525.66 216.15 520.38 211.73 514.71 207.58 508.68 203.47 502.54 199.66 496.1 196.21 489.43 192.85 482.68 189.89 475.74 187.36 468.64 184.98 461.51 183.08 454.26 181.68 446.91 180.48 439.56 179.82 432.14 179.73 424.66 179.86 417.18 180.55 409.82 181.78 402.59 183.21 395.36 185.14 388.24 187.54 381.25 190.09 374.23 193.08 367.3 196.45 360.47 199.92 353.59 203.73 346.78 207.85 340.03 211.99 333.2 216.41 326.41 221.06 319.65 225.68 312.79 230.5 305.94 235.49 299.11 240.41 292.17 245.49 285.24 250.69 278.34 255.8 271.36 261.03 264.41 266.37 257.55 271.6 250.66 276.94 243.89 282.4 237.3 287.74 230.76 293.2 224.47 298.78 218.5 304.26 212.71 309.88 207.31 315.63 202.4 321.31 197.77 327.14 193.71 333.12 190.27 339.04 187.22 345.14 184.85 351.42 183.19 357.65 181.95 364.08 181.43 370.7 181.63 377.29 182.18 384.09 183.39 391.1 185.22 398.1 187.23 405.32 189.74 412.75 192.69" stroke-dasharray="3 0" transform="rotate(28.28, 400, 400)" opacity="0.97"></path><path d="M416.43 203.73C423.54 206.54 430.66 209.55 437.79 212.68 444.92 215.58 452.06 218.49 459.17 221.38 466.28 223.92 473.36 226.38 480.38 228.76 487.38 230.75 494.3 232.67 501.09 234.52 507.85 236.03 514.44 237.54 520.85 239.08 527.17 240.36 533.25 241.74 539.04 243.26 547.35 245.42 561.84 250.87 567.82 254.32 572.96 258.14 580.16 267.68 582.15 273.39 583.24 279.6 582.5 293.75 580.87 301.6 579.62 307 578.05 312.62 576.21 318.46 574.55 324.33 572.74 330.38 570.88 336.58 569.37 342.8 567.92 349.14 566.6 355.57 565.79 362.01 565.2 368.53 564.85 375.11 565.1 381.69 565.6 388.17 566.32 394.55 567.56 400.93 568.92 407.21 570.37 413.4 572.17 419.61 573.93 425.75 575.56 431.83 577.37 437.97 578.92 444.08 580.16 450.18 581.4 456.38 582.21 462.62 582.56 468.9 582.77 475.33 582.45 481.85 581.58 488.48 580.49 495.28 578.83 502.22 576.6 509.27 574.13 516.51 571.11 523.87 567.57 531.32 563.8 538.91 559.55 546.53 554.85 554.13 549.97 561.74 544.7 569.23 539.08 576.51 533.34 583.61 527.29 590.36 521.01 596.61 514.64 602.49 508.07 607.73 501.34 612.2 494.57 616.09 487.67 619.09 480.68 621.11 473.68 622.43 466.61 622.72 459.5 621.95 452.39 620.52 445.26 618.11 438.13 614.75 431 610.94 423.87 606.39 416.76 601.2 409.65 595.93 402.73 590.43 395.99 584.87 389.24 579.62 382.67 574.53 376.28 569.7 369.87 565.46 363.62 561.59 357.54 558.15 351.43 555.38 345.46 553.01 339.65 551.03 330.91 549.11 314.01 547.06 305.8 546.46 297.58 546.15 281.55 544.49 273.73 542.81 265.89 540.59 250.7 533.59 243.41 528.77 238.55 525.24 233.86 521.24 229.38 516.81 224.9 512.25 220.64 507.28 216.66 501.96 212.72 496.54 209.08 490.8 205.79 484.79 202.59 478.72 199.77 472.41 197.36 465.9 195.11 459.37 193.3 452.66 191.98 445.81 190.85 438.95 190.23 431.97 190.14 424.88 190.26 417.79 190.92 410.76 192.08 403.81 193.43 396.86 195.27 389.97 197.55 383.16 199.98 376.32 202.82 369.54 206.03 362.83 209.34 356.07 212.99 349.34 216.94 342.66 220.92 335.91 225.17 329.19 229.66 322.49 234.13 315.71 238.8 308.95 243.65 302.21 248.45 295.41 253.4 288.62 258.48 281.89 263.49 275.12 268.62 268.41 273.86 261.82 279.01 255.24 284.27 248.81 289.63 242.59 294.9 236.47 300.28 230.62 305.77 225.1 311.17 219.77 316.7 214.86 322.34 210.41 327.92 206.26 333.63 202.66 339.47 199.64 345.27 196.99 351.21 194.97 357.31 193.63 363.37 192.65 369.6 192.33 376 192.69 382.38 193.34 388.94 194.6 395.67 196.43 402.4 198.42 409.32 200.87 416.42 203.73" stroke-dasharray="1 7" transform="rotate(32.32, 400, 400)" opacity="0.84"></path><path d="M419.34 214.77C426.09 217.49 432.84 220.41 439.57 223.44 446.29 226.28 452.99 229.15 459.64 232.01 466.28 234.56 472.86 237.06 479.35 239.5 485.82 241.59 492.18 243.62 498.39 245.6 504.55 247.25 510.53 248.89 516.3 250.55 524.7 252.69 539.9 257.21 546.53 259.78 557.27 265.78 568 277.61 569.57 282.69 570.4 288.17 569.58 300.75 568.1 307.77 566.33 315.13 561.88 331.02 559.53 339.46 558.26 345.16 557.04 351.01 555.92 356.99 555.25 362.98 554.75 369.09 554.45 375.31 554.66 381.52 555.07 387.7 555.66 393.82 556.7 399.95 557.85 406.04 559.05 412.09 560.58 418.16 562.06 424.22 563.44 430.26 565 436.35 566.34 442.46 567.41 448.59 568.51 454.81 569.26 461.08 569.6 467.42 569.86 473.87 569.66 480.42 568.97 487.05 568.13 493.83 566.78 500.7 564.93 507.66 562.88 514.73 560.33 521.88 557.31 529.06 554.09 536.3 550.42 543.52 546.34 550.64 542.09 557.73 537.46 564.62 532.49 571.25 527.39 577.67 522 583.7 516.35 589.23 510.61 594.38 504.66 598.9 498.52 602.69 492.34 605.96 486 608.39 479.55 609.94 473.08 610.87 466.51 610.88 459.87 609.95 453.23 608.45 446.54 606.07 439.81 602.86 433.09 599.26 426.34 595 419.59 590.16 412.83 585.25 406.22 580.11 399.77 574.88 393.31 569.91 386.99 565.04 380.83 560.37 374.65 556.19 368.62 552.31 362.72 548.77 356.79 545.81 350.99 543.19 345.32 540.9 336.8 538.42 320.26 535.16 312.21 534.02 304.17 533.25 288.46 531.13 280.81 529.46 273.16 527.44 258.39 521.33 251.33 517.16 244.38 512.41 231.49 500.69 225.65 493.83 221.9 489.05 218.44 483.95 215.32 478.56 212.29 473.11 209.62 467.41 207.35 461.47 205.22 455.5 203.52 449.33 202.28 442.98 201.22 436.61 200.63 430.08 200.55 423.4 200.66 416.72 201.28 410.05 202.38 403.41 203.65 396.76 205.38 390.14 207.53 383.55 209.83 376.95 212.52 370.37 215.56 363.81 218.71 357.23 222.18 350.66 225.94 344.11 229.75 337.52 233.82 330.94 238.11 324.38 242.42 317.78 246.92 311.19 251.6 304.64 256.24 298.05 261.05 291.5 265.98 285.03 270.86 278.55 275.87 272.17 280.98 265.92 286.02 259.72 291.17 253.7 296.42 247.92 301.6 242.25 306.87 236.87 312.25 231.84 317.55 227.01 322.97 222.59 328.49 218.63 333.95 214.95 339.53 211.79 345.22 209.19 350.87 206.92 356.65 205.24 362.56 204.18 368.44 203.45 374.47 203.32 380.63 203.81 386.78 204.55 393.08 205.85 399.53 207.67 405.98 209.63 412.58 212.01 419.33 214.77" stroke-dasharray="5 4" transform="rotate(36.36, 400, 400)" opacity="0.53"></path><path d="M421.35 225.81C427.74 228.43 434.09 231.24 440.39 234.18 446.69 236.94 452.94 239.75 459.11 242.57 471.42 247.38 483.35 252.04 494.65 256.5 505.76 259.78 516.03 263.1 525.19 266.62 533.9 269.44 541.24 272.9 546.95 277.15 552.03 281.23 555.38 286.4 556.9 292.66 557.94 299.02 557.4 306.54 555.46 315.1 553.71 323.78 551.19 333.42 548.26 343.84 546.71 351.76 544.51 368.46 544.04 377.19 544.22 383.06 544.55 388.93 545.02 394.8 545.89 400.68 546.83 406.57 547.81 412.45 550.63 424.3 553.08 436.27 554.79 448.37 556.72 460.74 557.28 473.43 556.28 486.38 554.81 499.69 551.54 513.25 546.54 526.8 540.91 540.37 533.65 553.48 525.02 565.56 515.94 576.74 505.73 586.06 494.67 592.85 483.42 597.73 471.53 599.5 459.24 597.9 453.08 596.35 446.84 594.03 440.54 590.98 434.24 587.6 427.89 583.62 421.5 579.12 415.11 574.55 408.84 569.77 402.69 564.87 396.53 560.19 390.5 555.56 384.58 551.07 372.71 543.36 361.27 536.67 350.3 531.11 339.18 527.49 328.42 524.61 318.08 522.11 307.52 520.72 297.3 518.92 287.51 516.32 277.52 513.91 267.98 510.19 259.05 505.06 250.07 499.67 241.83 492.79 234.57 484.53 227.54 476.03 221.71 466.28 217.32 455.5 215.33 450.07 213.74 444.41 212.57 438.54 211.58 432.67 211.03 426.59 210.96 420.33 211.06 414.07 211.64 407.78 212.67 401.47 213.86 395.17 215.49 388.85 217.5 382.53 221.94 369.88 227.81 357.18 234.86 344.53 242.13 331.8 250.37 319.08 259.34 306.53 268.25 293.98 277.77 281.69 287.73 269.97 297.48 258.56 307.66 248.03 318.18 238.78 328.48 230.36 339.19 223.62 350.28 218.92 361.21 215.4 372.62 214.06 384.47 215 390.37 215.82 396.4 217.14 402.55 218.94 408.69 220.85 414.96 223.15 421.34 225.81" stroke-dasharray="4 8" transform="rotate(40.400000000000006, 400, 400)" opacity="0.50"></path><path d="M422.37 236.85C434.37 241.8 446.14 247.33 457.52 253.07 468.85 257.87 479.71 262.62 489.88 267.22 499.86 270.76 508.98 274.33 517 278.05 524.63 281.05 530.96 284.56 535.81 288.71 540.15 292.6 542.96 297.39 544.17 303.14 545.06 308.89 544.6 315.67 542.95 323.43 541.55 331.25 539.5 340.01 537.06 349.59 535.68 359.19 534.48 369.56 533.63 380.62 534.33 391.68 535.39 402.94 536.65 414.3 538.98 425.74 540.96 437.41 542.31 449.26 543.94 461.31 544.4 473.65 543.54 486.17 542.36 498.9 539.62 511.73 535.33 524.35 530.56 536.83 524.29 548.67 516.73 559.37 508.79 569.15 499.73 577.1 489.79 582.68 479.67 586.57 468.84 587.68 457.53 585.79 446.17 582.31 434.42 576.28 422.42 568.08 410.42 559.65 398.73 550.66 387.45 541.81 376.13 534.27 365.14 527.5 354.54 521.63 343.82 517.44 333.42 513.91 323.38 510.77 313.18 508.71 303.31 506.41 293.85 503.55 284.26 501.02 275.12 497.46 266.58 492.73 258.06 487.9 250.27 481.76 243.42 474.36 236.83 466.8 231.37 458.05 227.28 448.24 223.71 438.36 221.67 427.53 221.36 415.87 221.74 404.21 223.83 392.3 227.46 380.31 231.6 368.32 237.1 356.21 243.72 344.13 250.58 332.04 258.38 319.96 266.9 308.11 275.42 296.34 284.55 284.91 294.12 274.12 303.54 263.7 313.38 254.21 323.55 246 333.55 238.58 343.92 232.77 354.6 228.85 365.17 225.98 376.13 225.09 387.43 226.25 398.69 228.17 410.36 231.77 422.36 236.85" stroke-dasharray="5 8" transform="rotate(44.44, 400, 400)" opacity="0.65"></path><path d="M422.36 247.9C433.56 252.62 444.43 257.94 454.84 263.5 465.21 268.27 475.03 273.05 484.12 277.75 493.04 281.51 501.09 285.31 508.07 289.21 517.47 294.24 529.25 306.27 531.46 313.93 532.28 319.22 531.94 325.43 530.59 332.54 529.55 339.65 527.92 347.66 525.95 356.5 524.91 365.33 523.96 374.98 523.22 385.38 523.82 395.78 524.63 406.47 525.56 417.36 527.44 428.31 528.99 439.54 529.98 450.95 531.3 462.5 531.63 474.29 530.82 486.15 529.83 498.1 527.49 510 523.79 521.53 519.73 532.8 514.33 543.33 507.72 552.64 500.79 561.05 492.8 567.71 483.92 572.18 474.87 575.2 465.09 575.74 454.74 573.65 444.36 570.25 433.49 564.61 422.3 557.04 411.1 549.27 400.1 540.91 389.4 532.56 378.67 525.27 368.19 518.51 358.02 512.46 347.78 507.83 337.79 503.75 328.13 500.03 318.37 497.34 308.9 494.53 299.85 491.34 290.72 488.56 282.04 484.99 273.96 480.49 265.93 476 258.62 470.4 252.22 463.68 246.08 456.88 241.01 448.97 237.23 440.04 233.93 431.06 232.05 421.12 231.77 410.33 232.11 399.53 234.05 388.42 237.41 377.16 241.24 365.92 246.35 354.54 252.52 343.18 258.94 331.85 266.26 320.57 274.3 309.56 282.37 298.7 291.04 288.25 300.15 278.48 309.18 269.12 318.62 260.7 328.36 253.53 337.99 247.1 347.95 242.17 358.17 238.99 368.31 236.71 378.77 236.22 389.48 237.57 400.17 239.55 411.16 243.04 422.36 247.9" stroke-dasharray="0 7" transform="rotate(48.48, 400, 400)" opacity="0.52"></path><path d="M421.3 258.94C431.68 263.43 441.65 268.51 451.11 273.86 460.53 278.55 469.35 283.33 477.42 288.08 485.36 292.01 492.44 296 498.51 300.08 506.69 305.41 516.86 317.49 518.8 324.83 519.6 329.8 519.43 335.58 518.4 342.16 517.68 348.7 516.46 356.08 514.91 364.26 514.17 372.42 513.44 381.39 512.81 391.13 513.31 400.87 513.92 410.95 514.55 421.27 516.02 431.64 517.16 442.28 517.82 453.09 518.82 463.97 518.97 475.02 518.17 486.03 517.28 497.03 515.23 507.85 512.01 518.19 508.53 528.18 503.86 537.36 498.08 545.31 492.06 552.42 485.03 557.89 477.13 561.38 469.09 563.63 460.3 563.69 450.91 561.48 441.47 558.19 431.51 552.95 421.14 546 410.77 538.88 400.5 531.16 390.43 523.33 380.34 516.35 370.43 509.71 360.77 503.57 351.06 498.63 341.56 494.11 332.36 489.93 323.1 486.66 314.12 483.35 305.54 479.8 296.93 476.71 288.77 473.02 281.19 468.6 273.7 464.28 266.9 459.04 260.97 452.86 255.3 446.64 250.64 439.43 247.17 431.29 244.14 423.1 242.43 414.01 242.18 404.08 242.49 394.15 244.26 383.88 247.35 373.44 250.86 363.03 255.57 352.48 261.27 341.97 267.22 331.52 274.04 321.17 281.54 311.12 289.12 301.27 297.28 291.87 305.88 283.18 314.44 274.91 323.4 267.57 332.65 261.42 341.82 255.94 351.3 251.86 360.99 249.35 370.63 247.61 380.53 247.47 390.6 248.96 400.66 250.96 410.93 254.33 421.3 258.94" stroke-dasharray="10 8" transform="rotate(52.52, 400, 400)" opacity="0.08"></path><path d="M419.26 269.98C428.8 274.23 437.88 279.03 446.41 284.15 454.91 288.72 462.79 293.44 469.93 298.18 476.96 302.23 483.17 306.36 488.44 310.59 495.58 316.19 504.48 328.44 506.26 335.58 507.1 340.36 507.11 345.82 506.39 351.98 505.98 358.07 505.12 364.92 503.94 372.51 503.46 380.07 502.93 388.4 502.4 397.48 502.81 406.56 503.24 415.99 503.62 425.64 504.71 435.33 505.5 445.26 505.85 455.31 506.53 465.37 506.49 475.51 505.64 485.53 504.79 495.45 502.95 505.1 500.1 514.17 497.08 522.87 493.01 530.72 487.96 537.38 482.72 543.27 476.55 547.66 469.55 550.27 462.44 551.86 454.59 551.55 446.12 549.27 437.6 546.14 428.53 541.3 419.01 534.96 409.48 528.47 399.97 521.38 390.58 514.11 381.19 507.49 371.9 501.05 362.81 494.96 353.71 489.82 344.77 485.01 336.1 480.46 327.41 476.71 318.99 472.97 310.95 469.07 302.93 465.64 295.33 461.77 288.31 457.34 281.39 453.07 275.13 448.07 269.7 442.28 264.51 436.5 260.26 429.87 257.11 422.41 254.36 414.94 252.81 406.63 252.59 397.55 252.87 388.47 254.48 379.08 257.28 369.53 260.48 360.01 264.77 350.38 269.99 340.81 275.46 331.34 281.74 322 288.67 313.01 295.7 304.23 303.3 295.94 311.32 288.35 319.35 281.17 327.76 274.89 336.44 269.72 345.09 265.14 354.01 261.83 363.11 259.93 372.18 258.67 381.45 258.82 390.84 260.41 400.22 262.41 409.73 265.64 419.26 269.98" stroke-dasharray="1 4" transform="rotate(56.56, 400, 400)" opacity="0.54"></path><path d="M416.33 281.02C425.01 285 433.21 289.52 440.86 294.37 448.47 298.78 455.47 303.38 461.76 308.06 467.96 312.17 473.41 316.38 478 320.69 484.26 326.52 492.17 338.98 493.88 346 494.88 353.26 494.16 370.61 493.05 380.86 492.8 387.88 492.43 395.6 491.99 404.01 492.33 412.41 492.59 421.13 492.76 430.03 493.52 438.95 493.99 448.06 494.05 457.21 494.44 466.35 494.21 475.47 493.29 484.39 492.42 493.16 490.71 501.57 488.15 509.37 485.49 516.79 481.92 523.37 477.48 528.81 472.91 533.6 467.49 537.03 461.32 538.89 455.05 539.93 448.07 539.33 440.48 537.04 432.86 534.09 424.66 529.66 415.99 523.92 407.32 518.05 398.6 511.6 389.94 504.9 381.28 498.7 372.69 492.54 364.24 486.58 355.8 481.39 347.49 476.4 339.44 471.62 331.38 467.51 323.58 463.41 316.15 459.23 308.76 455.47 301.78 451.4 295.34 446.93 289.03 442.64 283.33 437.77 278.41 432.29 273.72 426.85 269.88 420.7 267.05 413.85 264.58 407 263.19 399.44 263 391.2 263.24 382.95 264.69 374.45 267.22 365.83 270.09 357.24 273.97 348.59 278.69 340.04 283.65 331.6 289.37 323.33 295.7 315.44 302.15 307.76 309.14 300.58 316.54 294.1 323.97 287.98 331.77 282.7 339.82 278.46 347.86 274.71 356.16 272.09 364.6 270.74 373.03 269.89 381.62 270.28 390.27 271.93 398.93 273.9 407.65 276.95 416.33 281.02" stroke-dasharray="7 4" transform="rotate(60.599999999999994, 400, 400)" opacity="0.10"></path><path d="M412.64 292.06C420.47 295.76 427.81 299.98 434.61 304.52 441.38 308.73 447.56 313.16 453.09 317.71 460.94 323.91 472.87 336.33 476.85 342.72 480 348.93 482.88 362.91 482.92 370.94 483.04 376.37 482.79 382.36 482.23 388.91 482.17 395.43 481.94 402.56 481.58 410.27 481.85 417.98 481.99 425.93 481.97 434.02 482.45 442.1 482.64 450.3 482.46 458.47 482.57 466.6 482.15 474.63 481.15 482.38 480.24 489.98 478.62 497.15 476.27 503.7 472.3 512.59 460.42 524.72 452.6 527.25 447.09 527.84 440.92 527.03 434.17 524.8 427.39 522.05 420.05 518.04 412.24 512.87 404.42 507.62 396.51 501.79 388.62 495.68 380.74 489.94 372.88 484.14 365.15 478.43 357.42 473.3 349.81 468.27 342.43 463.39 335.07 459.04 327.95 454.71 321.18 450.32 314.46 446.31 308.14 442.08 302.32 437.56 296.64 433.23 291.52 428.46 287.11 423.23 282.92 418.05 279.51 412.32 277 406.03 274.8 399.74 273.57 392.86 273.41 385.44 273.62 378.01 274.9 370.39 277.15 362.72 279.71 355.09 283.16 347.45 287.39 339.95 291.83 332.55 296.97 325.38 302.68 318.6 308.51 312.01 314.85 305.92 321.57 300.49 328.35 295.38 335.48 291.05 342.84 287.65 350.22 284.66 357.82 282.66 365.55 281.77 373.28 281.26 381.14 281.84 389.02 283.51 396.91 285.42 404.82 288.29 412.64 292.06" stroke-dasharray="9 11" transform="rotate(64.64, 400, 400)" opacity="0.93"></path><path d="M408.37 303.1C415.34 306.5 421.85 310.39 427.85 314.61 433.82 318.56 439.26 322.77 444.1 327.12 450.99 333.21 461.51 345.57 465.11 351.94 468.05 358.16 471.11 371.83 471.47 379.47 471.8 384.62 471.79 390.22 471.48 396.27 471.57 402.3 471.47 408.82 471.18 415.82 471.38 422.82 471.41 429.97 471.25 437.18 471.5 444.38 471.45 451.62 471.06 458.75 470.94 465.83 470.35 472.74 469.27 479.33 467.51 488.74 460.95 504.31 456.06 509.83 450.45 513.71 436.04 515.14 427.36 512.53 421.38 510.02 414.87 506.42 407.91 501.83 400.95 497.17 393.87 491.97 386.78 486.47 379.71 481.23 372.64 475.84 365.66 470.46 358.7 465.51 351.84 460.59 345.19 455.73 338.57 451.3 332.17 446.85 326.1 442.37 320.1 438.21 314.46 433.88 309.29 429.36 304.24 425.01 299.72 420.35 295.84 415.35 292.15 410.41 289.15 405.06 286.95 399.28 285.02 393.52 283.95 387.31 283.82 380.67 284 374.03 285.12 367.3 287.1 360.58 289.33 353.89 292.37 347.26 296.1 340.81 300.02 334.45 304.57 328.35 309.64 322.64 314.83 317.1 320.49 312.05 326.5 307.62 332.58 303.44 338.99 299.97 345.61 297.32 352.27 294.99 359.13 293.53 366.09 293.02 373.07 292.8 380.15 293.51 387.22 295.16 394.31 296.98 401.39 299.64 408.37 303.1" stroke-dasharray="5 7" transform="rotate(68.68, 400, 400)" opacity="0.31"></path><path d="M403.7 314.14C415.96 320.21 426.5 327.89 434.98 336.31 443.35 343.69 449.62 351.81 453.61 360.43 457.68 368.24 459.85 377.09 460.24 387 461.45 396.63 461.61 407.77 460.77 420.29 461.47 432.81 461.18 445.59 459.87 457.81 459.41 469.81 457.18 480.76 453.08 489.55 449.07 497.37 442.81 502.24 434.45 503.3 425.99 502.91 415.46 498.71 403.22 490.79 390.97 482.64 378.29 472.86 365.91 462.66 353.62 453.68 341.73 444.5 330.99 435.37 320.54 427.22 311.47 418.42 304.59 408.85 298.37 399.55 294.68 388.96 294.23 377.22 294.77 365.49 298.55 353.76 304.83 342.82 311.78 332.17 320.89 322.76 331.38 315.5 342.15 309.01 354.06 305.14 366.36 304.49 378.75 304.67 391.44 307.89 403.7 314.14" stroke-dasharray="8 1" transform="rotate(72.72, 400, 400)" opacity="0.49"></path><path d="M398.87 325.18C409.47 330.62 418.57 337.56 425.91 345.27 433.2 352.24 438.75 359.97 442.42 368.15 446.23 375.73 448.47 384.16 449.2 393.33 450.6 402.3 450.99 412.37 450.36 423.38 450.87 434.38 450.37 445.3 448.89 455.47 448.08 465.44 445.78 474.25 441.94 481.07 438.24 487.14 432.69 490.66 425.4 491.03 418.06 490.39 408.97 486.61 398.38 479.75 387.79 472.71 376.8 464.13 366.07 454.99 355.43 446.67 345.16 437.98 335.92 429.26 326.95 421.27 319.21 412.78 313.38 403.85 308.1 395.14 304.99 385.57 304.63 375.33 305.07 365.09 308.26 355.16 313.61 346.15 319.5 337.34 327.28 329.79 336.29 324.17 345.57 319.1 355.86 316.29 366.51 316.16 377.26 316.6 388.26 319.6 398.87 325.18" stroke-dasharray="8 10" transform="rotate(76.76, 400, 400)" opacity="0.94"></path><path d="M394.08 336.22C403.07 340.99 410.81 347.12 417.1 354 423.38 360.4 428.26 367.53 431.63 375.08 435.15 382.21 437.4 390.02 438.38 398.33 439.86 406.49 440.41 415.42 439.95 424.87 440.31 434.32 439.67 443.42 438.11 451.64 435.91 463.14 425.35 477.49 416.62 478.6 410.33 477.83 402.59 474.53 393.61 468.71 384.64 462.76 375.34 455.4 366.29 447.43 357.32 439.96 348.69 432.02 340.96 423.98 333.47 416.43 327.04 408.5 322.24 400.36 317.87 392.38 315.31 383.89 315.04 375.12 315.38 366.34 318.01 358.11 322.44 350.85 327.3 343.73 333.77 337.83 341.31 333.61 349.07 329.75 357.72 327.79 366.71 328.04 375.79 328.63 385.1 331.34 394.08 336.22" stroke-dasharray="4 4" transform="rotate(80.80000000000001, 400, 400)" opacity="0.47"></path><path d="M389.57 347.26C396.98 351.33 403.41 356.58 408.71 362.52 414.02 368.18 418.24 374.51 421.29 381.22 424.47 387.67 426.64 394.65 427.75 401.94 429.23 409.13 429.86 416.79 429.54 424.67 429.78 432.54 429.07 439.87 427.53 446.3 425.24 455.21 415.72 465.65 408.28 466.05 402.98 465.25 396.54 462.47 389.14 457.67 381.75 452.78 374.13 446.67 366.74 439.93 359.42 433.49 352.42 426.52 346.19 419.41 340.14 412.61 334.99 405.5 331.17 398.32 327.67 391.25 325.64 383.93 325.45 376.6 325.7 369.27 327.79 362.62 331.35 356.94 335.21 351.33 340.41 346.84 346.5 343.78 352.76 340.93 359.79 339.63 367.13 340.09 374.54 340.75 382.17 343.12 389.57 347.26" stroke-dasharray="4 6" transform="rotate(84.84, 400, 400)" opacity="0.78"></path><path d="M385.55 358.3C397.28 364.84 406.22 375.16 411.45 386.62 417.08 397.52 419.9 410.21 419.13 422.78 419.77 435.35 416.85 445.31 411.15 450.59 405.86 455.09 396.9 454.09 385.18 446.63 373.45 438.95 361.37 427.5 351.68 415.44 342.49 404.03 336.38 391.46 335.86 379.68 336.48 367.9 342.68 359.01 351.94 354.61 361.69 350.63 373.81 351.58 385.55 358.3" stroke-dasharray="6 6" transform="rotate(88.88, 400, 400)" opacity="0.33"></path><path d="M382.19 369.34C390.91 374.38 397.83 382.4 402.13 391.35 406.7 400.04 409.16 409.96 408.72 419.34 407.79 432.21 394.08 441.62 381.9 435.59 373.18 429.91 364.4 421.23 357.5 411.92 350.89 402.9 346.56 393.04 346.27 384.15 346.64 375.25 351.04 368.91 357.7 366.02 364.66 363.3 373.46 364.2 382.19 369.34" stroke-dasharray="10 4" transform="rotate(92.92, 400, 400)" opacity="0.37"></path><path d="M379.66 380.39C391.22 387.15 399.04 402.15 398.31 414.58 398.92 426.99 391.01 431.77 379.46 424.55 367.89 417.11 357.23 401.65 356.68 389.69 357.34 377.72 368.09 373.42 379.66 380.39" stroke-dasharray="6 2" transform="rotate(96.96, 400, 400)" opacity="0.22"></path></g></svg>